<?xml version="1.0" encoding="UTF-8" standalone="no"?><!DOCTYPE svg PUBLIC "-//W3C//DTD SVG 1.1//EN" "http://www.w3.org/Graphics/SVG/1.1/DTD/svg11.dtd"><svg width="100%" height="100%" viewBox="0 0 4961 3508" version="1.1" xmlns="http://www.w3.org/2000/svg" xmlns:xlink="http://www.w3.org/1999/xlink" xml:space="preserve" xmlns:serif="http://www.serif.com/" style="fill-rule:evenodd;clip-rule:evenodd;stroke-linecap:round;stroke-linejoin:round;stroke-miterlimit:1.5;"><path d="M1549.54,1464.465c-15.429,43.511 -27.901,88.416 -37.173,134.474l85.111,-0.544c6.771,-19.962 25.677,-34.545 47.915,-34.545c27.917,0 50.582,22.665 50.582,50.582c0,27.917 -22.665,50.582 -50.582,50.582c-22.238,0 -41.144,-14.382 -47.915,-34.344l-90.96,0c-8.958,53.497 -13.62,108.442 -13.62,164.467c0,68.751 7.021,135.875 20.385,200.694l-42.276,-0.173c-13.907,-67.451 -21.213,-137.302 -21.213,-208.845c0,-568.76 461.761,-1030.522 1030.522,-1030.522c568.76,0 1030.522,461.761 1030.522,1030.522c0,73.11 -7.63,144.452 -22.136,213.273l-36.479,-0c9.452,-44.843 15.866,-90.799 19.016,-137.644l-89.243,-0c-7.828,19.165 -26.662,32.684 -48.629,32.684c-28.978,0 -52.505,-23.527 -52.505,-52.505c0,-28.978 23.527,-52.505 52.505,-52.505c23.572,-0 43.537,15.568 50.166,36.974l89.455,0c0.337,-10.61 0.507,-21.261 0.507,-31.952c0,-28.425 -1.2,-56.571 -3.553,-84.392l-99.022,-0c-8.541,14.752 -24.498,24.684 -42.756,24.684c-27.247,0 -49.369,-22.121 -49.369,-49.369c0,-27.247 22.121,-49.369 49.369,-49.369c24.865,0 45.46,18.421 48.873,42.349l89.711,0c-4.642,-39.682 -11.635,-78.651 -20.834,-116.762l-210.699,0c-8.193,20.351 -28.129,34.732 -51.398,34.732c-30.566,0 -55.382,-24.816 -55.382,-55.382c0,-30.566 24.816,-55.382 55.382,-55.382c25.719,0 47.366,17.569 53.586,41.349l75.981,0c-221.913,-494.9 -570.202,-635.95 -982.248,-598.477c0.71,3.158 1.085,6.443 1.085,9.814c0,24.61 -19.98,44.59 -44.59,44.59c-24.61,0 -44.59,-19.98 -44.59,-44.59c0,-24.61 19.98,-44.59 44.59,-44.59c15.238,0 28.702,7.66 36.746,19.337c437.775,-58.566 794.105,135.074 1020.297,613.916l92.197,0c-116.841,-416.766 -499.805,-722.758 -953.674,-722.758c-352.3,-0 -661.88,184.364 -837.439,461.792l169.993,0l98.637,-94.086c-11.141,-18.409 -8.767,-42.728 7.122,-58.618c18.681,-18.681 49.013,-18.681 67.693,0c18.681,18.681 18.681,49.013 0,67.693c-13.402,13.402 -32.802,17.189 -49.594,11.361l-101.03,96.479l-207.468,1.055c-26.754,45.047 -50.038,92.392 -69.481,141.666l165.81,0c5.139,-20.895 24.014,-36.413 46.485,-36.413c26.418,0 47.867,21.448 47.867,47.867c0,26.418 -21.448,47.867 -47.867,47.867c-18.954,0 -35.349,-11.04 -43.101,-27.035l-181.284,-0Zm96.508,122.196c-15.327,0 -27.77,12.443 -27.77,27.77c0,15.327 12.443,27.77 27.77,27.77c15.327,0 27.77,-12.443 27.77,-27.77c0,-15.327 -12.443,-27.77 -27.77,-27.77Zm641.582,-668.847c-11.656,0 -21.119,9.463 -21.119,21.119c0,11.656 9.463,21.119 21.119,21.119c11.656,0 21.119,-9.463 21.119,-21.119c0,-11.656 -9.463,-21.119 -21.119,-21.119Zm1040.534,743.561c-13.624,0 -24.684,11.061 -24.684,24.684c0,13.624 11.061,24.684 24.684,24.684c13.624,0 24.684,-11.061 24.684,-24.684c0,-13.624 -11.061,-24.684 -24.684,-24.684Zm5.202,154.992c-14.489,0 -26.252,11.763 -26.252,26.252c0,14.489 11.763,26.252 26.252,26.252c14.489,0 26.252,-11.763 26.252,-26.252c0,-14.489 -11.763,-26.252 -26.252,-26.252Zm-149.55,-302.429c-15.283,0 -27.691,12.408 -27.691,27.691c0,15.283 12.408,27.691 27.691,27.691c15.283,0 27.691,-12.408 27.691,-27.691c0,-15.283 -12.408,-27.691 -27.691,-27.691Zm-1409.892,-93.441c-12.77,0 -23.137,10.367 -23.137,23.137c0,12.77 10.367,23.137 23.137,23.137c12.77,0 23.137,-10.367 23.137,-23.137c0,-12.77 -10.367,-23.137 -23.137,-23.137Zm165.071,-289.084c-9.029,9.029 -9.029,23.691 0,32.72c9.029,9.029 23.691,9.029 32.72,0c9.029,-9.029 9.029,-23.691 0,-32.72c-9.029,-9.029 -23.691,-9.029 -32.72,0Z" style="fill:url(#_Linear1);"/><path d="M2743.768,2713.497c-7.653,22.156 -28.705,38.087 -53.448,38.087c-31.2,0 -56.53,-25.33 -56.53,-56.53c0,-31.2 25.33,-56.53 56.53,-56.53c25.72,0 47.451,17.214 54.291,40.739c0,0 164.286,-0.685 248.328,1.039c220.316,-136.003 363.331,-340.147 420.629,-538.923c-19.861,-11.199 -33.284,-32.495 -33.284,-56.901c0,-36.027 29.249,-65.276 65.276,-65.276c36.027,0 65.276,29.249 65.276,65.276c0,29.005 -18.959,53.618 -45.15,62.11l-9.713,31.429c-74.386,224.452 -246.095,413.868 -440.773,539.578l-271.432,-4.097Zm699.789,-662.036c-19.102,0 -34.61,15.508 -34.61,34.61c0,19.102 15.508,34.61 34.61,34.61c19.102,0 34.61,-15.508 34.61,-34.61c0,-19.102 -15.508,-34.61 -34.61,-34.61Zm-751.305,612.831c-16.878,0 -30.58,13.702 -30.58,30.58c0,16.878 13.702,30.58 30.58,30.58c16.878,0 30.58,-13.702 30.58,-30.58c0,-16.878 -13.702,-30.58 -30.58,-30.58Zm-654.914,-78.833l-15.102,25.3c-132.07,-85.282 -248.558,-213.782 -299.022,-366.051l-6.589,-21.322c-17.768,-5.761 -30.63,-22.458 -30.63,-42.135c0,-24.441 19.843,-44.284 44.284,-44.284c24.441,0 44.284,19.843 44.284,44.284c0,16.557 -9.107,31.005 -22.58,38.602c38.871,134.85 135.893,273.342 285.356,365.607Zm-305.701,-426.607c-12.959,0 -23.48,10.521 -23.48,23.48c0,12.959 10.521,23.48 23.48,23.48c12.959,0 23.48,-10.521 23.48,-23.48c0,-12.959 -10.521,-23.48 -23.48,-23.48Zm1204.136,426.607c149.463,-92.265 246.485,-230.757 285.356,-365.607c-13.473,-7.597 -22.58,-22.044 -22.58,-38.602c0,-24.441 19.843,-44.284 44.284,-44.284c24.441,0 44.284,19.843 44.284,44.284c0,19.677 -12.862,36.374 -30.63,42.135l-6.589,21.322c-50.464,152.269 -166.951,280.769 -299.022,366.051l-15.102,-25.3Zm305.701,-426.607c-12.959,0 -23.48,10.521 -23.48,23.48c0,12.959 10.521,23.48 23.48,23.48c12.959,0 23.48,-10.521 23.48,-23.48c0,-12.959 -10.521,-23.48 -23.48,-23.48Zm-1007.175,554.645l-271.432,4.097c-194.679,-125.71 -366.387,-315.125 -440.773,-539.578l-9.713,-31.429c-26.191,-8.492 -45.15,-33.104 -45.15,-62.11c0,-36.027 29.249,-65.276 65.276,-65.276c36.027,0 65.276,29.249 65.276,65.276c0,24.406 -13.424,45.702 -33.284,56.901c57.298,198.775 200.313,402.919 420.629,538.923c84.042,-1.724 248.328,-1.039 248.328,-1.039c6.84,-23.525 28.571,-40.739 54.291,-40.739c31.2,0 56.53,25.33 56.53,56.53c0,31.2 -25.33,56.53 -56.53,56.53c-24.743,0 -45.795,-15.931 -53.448,-38.087Zm51.515,-49.205c-16.878,0 -30.58,13.702 -30.58,30.58c0,16.878 13.702,30.58 30.58,30.58c16.878,0 30.58,-13.702 30.58,-30.58c0,-16.878 -13.702,-30.58 -30.58,-30.58Zm-751.305,-612.831c-19.102,0 -34.61,15.508 -34.61,34.61c0,19.102 15.508,34.61 34.61,34.61c19.102,0 34.61,-15.508 34.61,-34.61c0,-19.102 -15.508,-34.61 -34.61,-34.61Z" style="fill:url(#_Linear2);"/><path d="M1752.388,1829.188c60.7,-169.509 155.21,-321.655 298.375,-448.817c-15.007,-159.34 16.498,-295.424 76.38,-417.319l287.945,339.103l305.433,103.16l111.331,178.695l364.292,155.495l-111.377,164.708c-34.974,39.049 -78.138,63.012 -134.795,62.119c-71.651,-0.502 -117.904,-5.73 -158.096,-12.085c-53.4,-5.342 -97.972,-5.191 -130.339,2.554c-39.777,10.479 -52.292,30.046 -52.622,53.674c0.191,11.881 3.837,24.914 13.844,40.067c38.357,44.228 61.275,94.631 76.805,147.99c19.364,69.606 20.816,143.049 8.977,219.341c-21.193,96.253 -45.785,133.153 -86.919,188.128l-70.43,95.294c-328.716,-231.321 -571.515,-431.799 -707.073,-593.781c-13.501,-90.794 20.325,-301.984 39.791,-318.981l-131.523,40.654Z" style="fill:#42caed;"/><path d="M2098.646,2277.995c138.559,115.384 285.71,227.905 445.45,336.23c61.9,-75.172 108.758,-168.396 142.419,-277.456c-11.408,91.518 -57.404,184.644 -134.703,302.871c-184.959,-124.786 -343.52,-246.273 -453.166,-361.645Z" style="fill:#abedfb;"/><path d="M2120.181,1402.081c-34.98,-97.127 -27.991,-207.167 19.443,-329.651l239.318,277.355l302.288,97.426l118.344,187.469l314.289,129.472l-64.406,94.199c-23.71,31.764 -54.13,49.999 -89.092,51.468c-82.142,-1.786 -143.228,-8.65 -195.612,-17.198c-77.809,-9.022 -144.503,-5.568 -188.375,23.501c-50.935,32.007 -76.901,74.467 -90.611,122.056c-6.399,34.336 -7.151,75.073 14.177,133.67c27.077,-122.918 70.057,-226.951 205.663,-220.991c-76.606,10.324 -100.444,32.012 -95.409,72.563c1.821,9.942 8.113,22.322 20.768,38.172c21.532,20.706 48.091,75.453 54.388,93.621c6.717,18.471 14.002,36.488 17.509,57.528c-12.616,144.811 -65.63,277.799 -155.259,400.07c-321.389,-221.693 -530.853,-397.003 -643.743,-532.291c-2.881,-132.548 16.986,-263.796 79.855,-392.587l-130.944,41.386c66.197,-130.146 142.162,-251.323 267.411,-327.238Z" style="fill:#0a245c;"/><path d="M1910.966,2086.448l183.529,-125.844c11.084,38.718 25.65,78.146 41.343,107.646l-224.872,18.198Z" style="fill:#0c285c;stroke:#000;stroke-opacity:0;stroke-width:4.17px;"/><path d="M2799.575,1634.68l93.964,189.834l220.325,-60.935l-314.289,-128.899" style="fill:#1045a4;stroke:#000;stroke-opacity:0;stroke-width:4.17px;"/><path d="M2376.613,1167.65l53.139,-171.938l96.234,275.424l-149.373,-103.486Z" style="fill:#0e79c1;"/><path d="M2198.161,1555.95c-138.325,161.697 -153.427,335.542 -61.559,519.934c39.922,-59.748 77.944,-112.77 106.792,-133.332c12.93,148.76 89.214,256.303 239.923,315.424c-148.268,-125.195 -198.312,-271.2 -189.87,-429.597c-62.968,39.866 -112.508,83.167 -146.239,130.512c-23.201,-119.623 -4.888,-254.423 50.952,-402.942Z" style="fill:url(#_Linear3);stroke:#000;stroke-width:1px;"/><path d="M2616.079,1878.377l165.426,-205.305l-105.142,-31.123c-50.548,-1.036 -92.869,-16.552 -112.149,-38.981l51.865,275.409Z" style="fill:#0b2a6a;"/><path d="M2247.992,1860.619l45.802,-32.923l-3.24,49.179l-12.514,-23.694l-30.048,7.438Z" style="fill:url(#_Linear4);stroke:#000;stroke-opacity:0;stroke-width:1px;"/><path d="M1852.77,1726.889c57.871,-127.129 142.114,-239.874 268.266,-329.758l119.526,128.21l-280.054,219.076l23.593,-58.215l-131.332,40.687Z" style="fill:#114883;"/><path d="M2120.404,1397.131c-30.53,-84.737 -32.497,-187.981 17.209,-324.702l241.826,278.567l15.142,3.601l138.988,223.314l-215.829,39.606l5.085,-11.865l-202.421,-208.521Z" style="fill:#0d376f;"/><path d="M2528.805,1568.565l2.36,-1.389l0.833,-5.415l14.163,0.278l146.847,-96.986l-9.492,-16.95l-288.334,-92.8l133.622,213.263Z" style="fill:#114883;stroke:#000;stroke-opacity:0;stroke-width:4.17px;"/><path d="M2316.108,1617.517l12.68,0l236.913,302.145c-101.95,88.88 -92.044,169.157 -68.075,248.351l72.759,135.677l-432.17,-152.672l-2.377,-75.267c31.159,-47.894 66.253,-93.259 108.212,-134.21c5.036,141.902 83.808,247.881 239.267,316.5c-158.168,-135.95 -195.775,-281.675 -186.627,-431.191l19.418,-209.333Z" style="fill:#0c285c;"/><path d="M2194.491,1556.723l46.072,-32.905l80.125,80.274l-80.125,254.258l-98.646,69.667c-15.374,-83.907 -3.973,-194.548 52.575,-371.294Z" style="fill:url(#_Linear5);stroke:#000;stroke-opacity:0;stroke-width:4.17px;"/><path d="M2329.23,1617.517l207.288,-38.547c8.085,8.875 18.39,17.936 31.214,27.206l48.347,293.565c-15.788,2.996 -32.181,9.32 -49.486,20.657l-237.363,-302.881Z" style="fill:#0a245b;stroke:#0b265a;stroke-width:4.17px;"/><path d="M2531.36,1566.214c39.088,-13.145 78.176,-21.919 117.264,-19.827c16.51,12.775 35.641,44.882 56.502,89.75c-80.118,16.246 -136.076,-10.561 -173.766,-69.923Z" style="fill:#fff;stroke:#000;stroke-opacity:0;stroke-width:1px;"/><path d="M2893.889,1824.514l219.975,-61.392c-50.021,85.469 -88.215,140.573 -149.902,146.766l-70.073,-85.374Z" style="fill:#0c3d96;stroke:#000;stroke-opacity:0;stroke-width:4.17px;"/><path d="M2767.088,1892.343l126.801,-66.575l67.828,84.119c-77.096,-4.411 -142.401,-10.208 -194.629,-17.545Z" style="fill:#0c3d96;stroke:#000;stroke-opacity:0;stroke-width:4.17px;"/><path d="M2671.561,1568.949l119.715,53.714l101.585,203.105l-125.774,66.665c-54.776,-7.768 -104.772,-4.136 -150.186,6.819l-1.258,-27.257l164.881,-197.768l-100.435,-31.007c24.707,-0.953 29.598,-1.112 19.975,-19.214l-28.505,-55.057Z" style="fill:#0a2159;"/><path d="M2570.384,2303.691l-68.104,-133.337c27.12,-123.29 73.967,-221.856 198.759,-222.73c-67.407,9.213 -99.826,35.16 -90.674,80.988c0.417,19.189 42.937,60.803 50.095,76.747c16.405,26.34 30.421,61.084 40.585,98.866l-130.661,99.466Z" style="fill:#0a2e6d;"/><path d="M2569.046,2303.691l131.999,-96.509c10.783,68.386 -17.994,150.222 -57.522,240.778l-74.477,-144.269Z" style="fill:#0c51c7;stroke:#000;stroke-opacity:0;stroke-width:4.17px;"/><path d="M2569.046,2302.697l-17.235,307.466c32.101,-43.487 68.969,-109.714 92.135,-163.626l-74.9,-143.84Z" style="fill:url(#_Linear6);stroke:#000;stroke-opacity:0;stroke-width:4.17px;"/><path d="M1910.966,2086.231l225.128,-13.155l9.885,75.789l423.069,156.881l-5.947,288.683l-14.296,20.872c-261.227,-174.273 -485.212,-350.142 -637.838,-529.069Z" style="fill:url(#_Linear7);stroke:#000;stroke-opacity:0;stroke-width:4.17px;"/><path d="M1903.617,2071.142c-5.237,-126.591 13.248,-229.858 55.997,-328.319l228.613,-174.362c-74.817,93.256 -133.017,204.603 -95.376,391.923l-189.234,110.758Z" style="fill:#13306a;"/><path d="M2500.367,2168.341c39.287,-149.75 92.431,-222.831 202.719,-216.289c139.185,10.222 205.722,15.708 245.36,14.281c93.217,3.304 146.821,-84.927 131.686,-123.712c0,0 -37.97,49.87 -99.711,73.113c-85.947,13.073 -240.975,-31.626 -296.924,-29.337c-85.344,5.264 -136.857,36.895 -170.01,86.39c-41.797,76.412 -37.528,139.005 -13.119,195.555" style="fill:#3ba5ea;"/><path d="M2119.316,1397.312c-160.228,78.848 -251.068,218.472 -289.932,341.452c-10.371,30.415 26.538,12.038 62.487,1.279l57.275,-19.765c-35.478,85.837 -52.024,157.475 -55.872,219.59c14.697,-55.174 60.491,-199.261 89.167,-251.329l-130.129,41.058c60.024,-130.632 145.204,-244.014 267.004,-332.285Z" style="fill:url(#_Linear8);"/><path d="M2140.61,1072.43l238.935,282.872l302.713,91.771l89.238,121.388l-78.487,-137.396l-303.248,-98.387l-249.151,-260.248" style="fill:#a7ecfb;"/><defs><linearGradient id="_Linear1" x1="0" y1="0" x2="1" y2="0" gradientUnits="userSpaceOnUse" gradientTransform="matrix(0,-1141.080013,1141.080013,0,2467.176429,2019.201112)"><stop offset="0" style="stop-color:#1d78b8;stop-opacity:1"/><stop offset="1" style="stop-color:#42caed;stop-opacity:1"/></linearGradient><linearGradient id="_Linear2" x1="0" y1="0" x2="1" y2="0" gradientUnits="userSpaceOnUse" gradientTransform="matrix(0,-858.676009,858.676009,0,2467.176429,2701.296173)"><stop offset="0" style="stop-color:#074798;stop-opacity:1"/><stop offset="0.59" style="stop-color:#125fa8;stop-opacity:1"/><stop offset="0.81" style="stop-color:#2a94ca;stop-opacity:1"/><stop offset="1" style="stop-color:#42caed;stop-opacity:1"/></linearGradient><linearGradient id="_Linear3" x1="0" y1="0" x2="1" y2="0" gradientUnits="userSpaceOnUse" gradientTransform="matrix(-318.402186,-635.329499,635.329499,-318.402186,2451.299546,2254.132882)"><stop offset="0" style="stop-color:#42caed;stop-opacity:1"/><stop offset="1" style="stop-color:#97caed;stop-opacity:1"/></linearGradient><linearGradient id="_Linear4" x1="0" y1="0" x2="1" y2="0" gradientUnits="userSpaceOnUse" gradientTransform="matrix(16.360556,-28.124385,28.124385,16.360556,2280.986801,1855.819897)"><stop offset="0" style="stop-color:#72caed;stop-opacity:1"/><stop offset="1" style="stop-color:#e9e4f0;stop-opacity:1"/></linearGradient><linearGradient id="_Linear5" x1="0" y1="0" x2="1" y2="0" gradientUnits="userSpaceOnUse" gradientTransform="matrix(-133.199217,-111.497017,111.497017,-133.199217,2240.006077,1625.304593)"><stop offset="0" style="stop-color:#0b265a;stop-opacity:1"/><stop offset="1" style="stop-color:#3761b3;stop-opacity:1"/></linearGradient><linearGradient id="_Linear6" x1="0" y1="0" x2="1" y2="0" gradientUnits="userSpaceOnUse" gradientTransform="matrix(133.725215,-163.515555,163.515555,133.725215,2511.644412,2552.167328)"><stop offset="0" style="stop-color:#0c51c7;stop-opacity:1"/><stop offset="0.5" style="stop-color:#0d4fc0;stop-opacity:1"/><stop offset="1" style="stop-color:#0f48ab;stop-opacity:1"/></linearGradient><linearGradient id="_Linear7" x1="0" y1="0" x2="1" y2="0" gradientUnits="userSpaceOnUse" gradientTransform="matrix(529.55534,251.474458,-251.474458,529.55534,2073.800849,2149.832583)"><stop offset="0" style="stop-color:#0c285c;stop-opacity:1"/><stop offset="0.56" style="stop-color:#0c3072;stop-opacity:1"/><stop offset="1" style="stop-color:#0c51c7;stop-opacity:1"/></linearGradient><linearGradient id="_Linear8" x1="0" y1="0" x2="1" y2="0" gradientUnits="userSpaceOnUse" gradientTransform="matrix(291.70812,0,0,542.556426,1827.607891,1668.58998)"><stop offset="0" style="stop-color:#77d9f2;stop-opacity:1"/><stop offset="0.2" style="stop-color:#93e4f7;stop-opacity:1"/><stop offset="0.42" style="stop-color:#b1f0fc;stop-opacity:1"/><stop offset="1" style="stop-color:#bff5ff;stop-opacity:1"/></linearGradient></defs></svg>